<svg xmlns="http://www.w3.org/2000/svg" width="100" height="100" viewBox="0 0 100 100">
  <defs>
    <pattern id="mandala" patternUnits="userSpaceOnUse" width="100" height="100">
      <path fill="hsla(209, 68%, 54%, 0.05)" d="M50 0a50 50 0 0 1 50 50H50V0zm0 100a50 50 0 0 1-50-50h50v50zM0 50a50 50 0 0 1 50-50v50H0zM100 50A50 50 0 0 1 50 100V50h50z"/>
      <path fill="hsla(24, 90%, 60%, 0.05)" d="M50 25a25 25 0 0 1 25 25H50V25zm0 50a25 25 0 0 1-25-25h25v25zM25 50a25 25 0 0 1 25-25v25H25zm50 0a25 25 0 0 1-25 25V50h25z"/>
    </pattern>
  </defs>
  <rect width="100" height="100" fill="url(#mandala)"/>
</svg>
